<?xml version="1.0" encoding="UTF-8"?>
<svg width="182px" height="182px" viewBox="0 0 182 182" version="1.1" xmlns="http://www.w3.org/2000/svg" xmlns:xlink="http://www.w3.org/1999/xlink">
    <!-- Generator: Sketch 51.2 (57519) - http://www.bohemiancoding.com/sketch -->
    <title>Drift_logo_black</title>
    <desc>Created with Sketch.</desc>
    <defs></defs>
    <g id="Page-1" stroke="none" stroke-width="1" fill="none" fill-rule="evenodd">
        <g id="Desktop-HD" transform="translate(-835.000000, -1356.000000)" fill="#000000" fill-rule="nonzero">
            <g id="Drift_logo_black" transform="translate(835.000000, 1356.000000)">
                <g id="Fill-12" transform="translate(0.273830, 0.406581)">
                    <path d="M90.8,0.464246076 C40.9217687,0.464246076 0.617687075,41.0084034 0.617687075,90.8374822 C0.617687075,140.82131 41.0761905,181.210718 90.8,181.210718 C140.678231,181.210718 180.982313,140.666561 180.982313,90.8374822 C180.982313,41.0084034 140.678231,0.464246076 90.8,0.464246076 Z M88.0204082,113.58554 C88.0204082,114.978278 87.2482993,116.216268 86.1673469,116.990011 C84.9319728,117.609006 83.5421769,117.609006 82.4612245,116.990011 L66.4013605,107.70509 L66.4013605,142.523545 C66.4013605,143.916283 65.6292517,145.154273 64.5482993,145.928016 C63.9306122,146.237514 63.3129252,146.392263 62.6952381,146.392263 C62.077551,146.392263 61.3054422,146.237514 60.8421769,145.928016 L51.2680272,140.357064 C50.0326531,139.738069 49.414966,138.345331 49.414966,136.952592 L49.414966,97.8011733 L33.9727891,88.8257492 C32.737415,88.2067544 32.1197279,86.8140162 32.1197279,85.4212779 L32.1197279,70.1011574 C32.1197279,68.7084192 32.8918367,67.4704297 33.9727891,66.6966862 C35.2081633,66.0776915 36.5979592,66.0776915 37.8333333,66.6966862 L86.4761905,95.1704455 C87.7115646,95.7894403 88.3292517,97.1821785 88.3292517,98.5749168 L88.3292517,113.58554 L88.0204082,113.58554 Z M88.792517,53.5430474 C88.792517,55.4000317 87.7115646,57.257016 86.1673469,58.1855082 L72.114966,66.3871888 C71.6517007,66.6966862 71.3428571,67.1609323 71.3428571,67.6251784 L71.3428571,78.1480894 C71.3428571,79.2313303 70.107483,80.0050737 69.1809524,79.386079 C63.3129252,75.9816077 47.0986395,66.5419375 41.2306122,63.1374663 C40.3040816,62.5184715 40.3040816,61.1257333 41.2306122,60.5067385 L83.0789116,36.0564452 C84.3142857,35.4374505 85.7040816,35.4374505 86.9394558,36.0564452 C88.1748299,36.67544 88.792517,38.0681782 88.792517,39.4609164 L88.792517,53.5430474 Z M93.5795918,39.4609164 C93.5795918,38.0681782 94.3517007,36.8301887 95.4326531,36.0564452 C96.6680272,35.4374505 98.0578231,35.4374505 99.2931973,36.0564452 L141.141497,60.5067385 C142.222449,61.1257333 142.222449,62.5184715 141.141497,63.1374663 C135.273469,66.5419375 119.213605,75.9816077 113.191156,79.386079 C112.110204,80.0050737 110.87483,79.2313303 110.87483,77.9933407 L110.87483,67.6251784 C110.87483,67.0061836 110.565986,66.5419375 110.102721,66.2324401 L95.4326531,57.5665134 C94.1972789,56.9475186 93.5795918,55.5547804 93.5795918,54.1620422 L93.5795918,39.4609164 Z M149.943537,85.1117806 C149.943537,86.5045188 149.171429,87.7425083 148.090476,88.5162518 L132.648299,97.4916759 L132.648299,136.643095 C132.648299,138.035833 131.87619,139.273823 130.795238,140.047566 L121.221088,145.618519 C120.603401,145.928016 119.985714,146.082765 119.368027,146.082765 C118.75034,146.082765 117.978231,145.928016 117.514966,145.618519 C116.279592,144.999524 115.661905,143.606786 115.661905,142.214048 L115.661905,107.395592 L99.6020408,116.680514 C98.3666667,117.299508 96.9768707,117.299508 95.8959184,116.680514 C94.6605442,116.061519 94.0428571,114.668781 94.0428571,113.276042 L94.0428571,98.2654194 C94.0428571,96.8726811 94.814966,95.6346916 95.8959184,94.8609482 L144.538776,66.3871888 C145.77415,65.7681941 147.163946,65.7681941 148.39932,66.3871888 C149.634694,67.0061836 150.252381,68.3989218 150.252381,69.7916601 L150.252381,85.1117806 L149.943537,85.1117806 Z" id="Shape"></path>
                </g>
            </g>
        </g>
    </g>
</svg>