<?xml version="1.0" encoding="UTF-8"?>
<svg width="198px" height="43px" viewBox="0 0 198 43" version="1.1" xmlns="http://www.w3.org/2000/svg" xmlns:xlink="http://www.w3.org/1999/xlink">
    <!-- Generator: Sketch 51.2 (57519) - http://www.bohemiancoding.com/sketch -->
    <title>Group 10 Copy 2</title>
    <desc>Created with Sketch.</desc>
    <defs></defs>
    <g id="Page-1" stroke="none" stroke-width="1" fill="none" fill-rule="evenodd">
        <g id="Desktop-HD" transform="translate(-109.000000, -1253.000000)">
            <g id="Group-10-Copy-2" transform="translate(109.000000, 1253.000000)">
                <g id="Group-11" fill-rule="nonzero">
                    <circle id="Oval-2" fill="#6EECEC" cx="21.5" cy="21.5" r="21.5"></circle>
                    <g id="if_x-22_1931886" transform="translate(6.615385, 9.923077)">
                        <path d="M27.8614903,11.8530423 C27.0247753,11.4268722 26.1641396,11.0904486 25.1716857,11.1350711 C25.6964139,10.7680635 26.1941677,10.4266261 26.6853052,10.0751611 C27.5454319,9.45947077 28.0574364,8.62768713 28.2513466,7.60036664 C28.6478192,5.50260729 28.1831472,3.59035725 26.9718445,1.84005182 C26.4949576,1.15116049 25.8898152,0.580092632 25.2220718,0.0205564372 C25.2383582,0.096765668 25.2470104,0.139884049 25.2566805,0.182501053 C25.3874808,0.774125344 25.5493271,1.36073587 25.6419562,1.9578753 C25.8129636,3.06040227 25.8338306,4.16744162 25.5437287,5.2589383 C25.2393761,6.40608777 24.5950445,7.2744719 23.4203862,7.68058688 C22.6686659,7.9408013 21.8899713,7.96386462 21.1061872,7.88063611 C21.0507115,7.8746196 20.9820032,7.79590348 20.9580825,7.73623968 C20.8445865,7.45446607 20.6562747,7.23235628 20.3732981,7.12907271 C19.7951301,6.9179932 19.1981309,6.78512842 18.5746662,6.77560227 C18.1206821,6.768583 17.6529564,6.78713393 17.2162767,6.68685862 C15.8395649,6.37099142 14.4597995,6.42564146 13.0729087,6.55349247 C12.6194336,6.5956081 12.1634137,6.67332146 11.7119744,6.65426915 C11.3104123,6.63722235 10.9195381,6.64023061 10.5306998,6.72947563 C10.1637463,6.81320551 9.79679279,6.90044502 9.43441986,7.0012217 C9.02471452,7.11503417 8.71476352,7.34817425 8.56258725,7.759303 C8.54222922,7.81445441 8.46130605,7.88013474 8.40430357,7.88414575 C8.10096892,7.90570494 7.79559848,7.92676275 7.49277279,7.91573247 C6.76955379,7.88915951 6.07330918,7.74827271 5.45391613,7.35368939 C4.55765387,6.78262154 4.13522476,5.91774704 3.93978768,4.92552291 C3.68276755,3.62294672 3.80186203,2.32889393 4.07924018,1.04336453 C4.15100223,0.70994915 4.24922973,0.382550283 4.34898407,0 C4.08891024,0.234142834 3.86344507,0.424665911 3.65223051,0.629728907 C1.71007449,2.51991838 0.861653602,4.78313198 1.28510062,7.46549636 C1.446438,8.48930721 1.90958318,9.35769134 2.76920098,9.98742024 C3.19366589,10.2982737 3.62830982,10.5950886 4.05990005,10.8964159 C4.16423495,10.9691155 4.27467726,11.0322889 4.38206587,11.0999747 C3.71890306,11.1039857 3.09391155,11.2172968 2.49080492,11.4529438 C1.64034823,11.7863592 0.878448977,12.3243362 0,12.4887877 C0.217830917,12.6246607 0.458055666,12.7525117 0.672323927,12.913955 C0.865725208,13.0593542 1.03469685,13.2378442 1.20926696,13.4068081 C1.77165753,13.9508016 2.47808115,14.1789279 3.22572979,14.3418753 C3.8888926,14.4867731 4.49403503,14.3649386 5.09001635,14.0801568 C5.30224881,13.9788787 5.53229454,13.9031709 5.76234028,13.8505263 C6.17051877,13.7567689 6.71356921,14.001942 6.89475567,14.2967514 C7.15075789,14.7128939 7.41693913,15.1265296 7.71416636,15.514595 C8.13608653,16.0656078 8.6012675,16.5840311 9.02624137,17.1330384 C9.33822817,17.5366465 9.49854766,17.9979129 9.47564487,18.5193445 C9.45274209,19.0402747 9.46444796,19.5622076 9.44765258,20.0836392 C9.44256307,20.236559 9.40642757,20.3929885 9.35807725,20.5398918 C9.0837528,21.3716755 9.13668368,22.1778889 9.57845292,22.9379757 C9.99579253,23.6554455 10.6202751,24.0811142 11.4819287,24.0745963 C11.7338593,24.0725908 11.91301,24.1362656 12.0646773,24.3222763 C12.2305952,24.5268379 12.4519888,24.6376421 12.7166432,24.6491738 C12.9141161,24.6581985 13.1136248,24.660204 13.3110976,24.6471683 C13.8979179,24.6085623 14.4837202,24.5318517 15.0705404,24.5263365 C15.5041664,24.5223255 15.9383014,24.6110691 16.3729453,24.6516806 C16.8483053,24.6963032 17.285494,24.6311242 17.5995166,24.2189927 C17.6865472,24.1046789 17.8097132,24.0650701 17.9664701,24.075599 C18.5583798,24.114205 19.0871796,23.9342109 19.506555,23.525589 C20.3692265,22.6852819 20.5453235,21.6745069 20.2058533,20.5529276 C20.1737894,20.4476385 20.1254391,20.3413467 20.1218764,20.2340521 C20.1035542,19.6735132 20.1091527,19.1124729 20.0837051,18.5524353 C20.0567308,17.9663262 20.2623469,17.4624428 20.6145408,17.0132094 C20.97386,16.5539485 21.3530283,16.1102303 21.7296518,15.6640052 C22.1154365,15.2072512 22.4935869,14.7469875 22.7241416,14.1879527 C22.7429728,14.1423274 22.7796172,14.0982063 22.8193154,14.0686251 C23.0982204,13.8615566 23.4112251,13.7672978 23.752731,13.8610552 C24.0122959,13.9322507 24.2637176,14.036537 24.5151392,14.1343054 C24.8846375,14.2776991 25.251591,14.446663 25.6602784,14.4125694 C26.7362003,14.3213189 27.720002,14.020493 28.485464,13.2072602 C28.7714943,12.9034261 29.0829721,12.6151346 29.5201608,12.5063359 C28.9216347,12.3855041 28.3897812,12.1222815 27.8614903,11.8530423 Z M8.048547,8.84327903 C7.91163925,9.01324567 7.75488242,9.08845215 7.5309441,9.05435854 C7.1197119,8.99168648 6.69779174,8.98416583 6.2941938,8.89441943 C5.32413369,8.67882753 4.57648505,8.11377619 3.96269046,7.36221279 C3.84715864,7.22082462 3.74129689,7.07141441 3.62322032,6.93153036 C4.01307658,7.82297781 4.58615512,8.56401231 5.49615904,9.0809315 C5.42185223,9.08995628 5.3974226,9.10048518 5.37910037,9.09446866 C4.44670261,8.77007806 3.57639685,8.34541215 2.88422384,7.62292858 C2.12792304,6.83326057 1.83527637,5.88966996 1.92078009,4.82324211 C2.02562394,3.51464939 2.6160068,2.41964308 3.47969621,1.44947951 C3.48733047,1.44045474 3.50259899,1.43794785 3.50921535,1.4349396 C3.45882923,1.93932437 3.39113878,2.44571466 3.36161964,2.95411045 C3.30054555,4.01151352 3.38452242,5.0538753 3.80644258,6.04409393 C4.38868223,7.40934219 5.46307724,8.13633814 6.93038222,8.31733506 C7.38131258,8.37298785 7.8398772,8.3634617 8.29538811,8.38401814 C7.04438719,8.68935644 5.85954987,8.5685247 4.77548479,7.82347919 C5.67887235,8.72746105 6.78125966,9.0232732 8.048547,8.84327903 Z M9.61967793,13.2167864 C9.57489027,12.828721 9.55555014,12.4381487 9.51483408,12.0495819 C9.49956556,11.9026785 9.45477789,11.7587835 9.4237319,11.6138857 C9.43136616,11.598343 9.43900042,11.5828003 9.44714363,11.5672577 C9.7357187,11.8089211 10.0242938,12.051086 10.3098151,12.2902426 C9.97594345,12.7951287 10.0543219,13.3882572 10.4899837,13.7126478 C10.5607278,13.5572211 10.6304541,13.4048026 10.7220652,13.2032492 C10.776523,13.4022957 10.8330165,13.5562183 10.858464,13.7151547 C10.8823847,13.8655676 10.961781,13.8916392 11.0910545,13.8705814 C11.2727499,13.8404988 11.4574991,13.8129231 11.5760846,13.6524826 C11.6397034,13.5662458 11.7023044,13.5707582 11.7939155,13.6098656 C11.9007951,13.6559922 12.0178538,13.6790555 12.1567974,13.719667 C11.8315778,14.0801568 11.4595349,14.3248285 10.9790854,14.3749662 C10.2426336,14.4516768 9.70925326,13.9974296 9.61967793,13.2167864 Z M18.5685588,22.4345937 C17.8092043,23.6734951 16.7327735,23.5496551 15.9179433,23.1871598 C15.1840364,22.8607637 14.3351065,22.8607637 13.6011996,23.1871598 C12.7863694,23.5496551 11.7099386,23.6734951 10.9505841,22.4345937 C9.56929181,20.1814076 11.592371,18.4847495 12.6845793,18.4847495 C13.0647655,18.4847495 13.3869313,18.5589532 13.6561662,18.6687547 C14.3641167,18.9575475 15.1545172,18.9575475 15.8624677,18.6687547 C16.1317026,18.5589532 16.4543774,18.4847495 16.8340547,18.4847495 C17.9267719,18.4842481 19.9498511,20.1814076 18.5685588,22.4345937 Z M19.9467974,13.2072602 C19.8841965,13.8013914 19.526913,14.2486193 19.0077833,14.3584207 C18.555835,14.4541836 18.1456207,14.3142996 17.7761225,14.0585976 C17.6427774,13.9663443 17.5272456,13.8495236 17.3847394,13.7281904 C17.5516752,13.673039 17.6794218,13.6218986 17.812258,13.5913147 C17.8606083,13.5802844 17.9267719,13.6083615 17.9741043,13.6369399 C18.0519738,13.6840693 18.1145747,13.7577717 18.19448,13.7988845 C18.5069757,13.9598264 18.6525357,13.8956502 18.7380394,13.5702568 C18.7655227,13.4649678 18.794024,13.3591773 18.8362669,13.1992382 C18.9273691,13.3987861 18.9955685,13.5481963 19.0632589,13.695601 C19.4841612,13.5727637 19.6068183,12.605107 19.2332485,12.3097963 C19.5218235,12.0651245 19.8048001,11.8254666 20.0938842,11.5807948 C20.0429891,12.1533668 20.002273,12.6808149 19.9467974,13.2072602 Z M23.9899021,9.18521781 C23.9486771,9.1982536 23.9043983,9.20276599 23.8611375,9.21078802 C24.755364,8.72695968 25.3859539,8.01701053 25.8211068,7.1315796 C25.8083831,7.12054931 25.7956593,7.10901765 25.7829355,7.09798737 C25.6327951,7.27547466 25.488253,7.45797571 25.3309873,7.62944648 C24.6052235,8.41861312 23.7201582,8.90595109 22.6289678,8.99569749 C22.3984131,9.0147498 22.1683674,9.03881587 21.9373037,9.05335579 C21.8747028,9.0573668 21.7881812,9.05686543 21.7505188,9.02076632 C21.5459206,8.82422672 21.3530283,8.61615547 21.1560644,8.41209522 C21.1692971,8.39705393 21.1820208,8.38251401 21.1952536,8.36747271 C21.3306345,8.36747271 21.4665243,8.36396308 21.6019052,8.36797409 C22.3022214,8.38853053 22.9903228,8.32335158 23.6509409,8.07817846 C24.8678421,7.62643822 25.5819,6.72897425 25.9407103,5.53068437 C26.2786535,4.40308858 26.2664387,3.2539336 26.1274952,2.09976486 C26.1010297,1.88066332 26.0648942,1.66256453 26.0648942,1.42039968 C26.2470986,1.652537 26.438973,1.87815644 26.6094715,2.11831579 C27.0639645,2.75757085 27.4263375,3.44345393 27.6192298,4.20554623 C28.0065413,5.73875563 27.4874116,7.16416907 26.2058736,8.11778721 C25.5376213,8.61515271 24.7818294,8.93653506 23.9899021,9.18521781 Z" id="Shape" fill="#2F5BE7"></path>
                        <path d="M12.0173449,19.6382497 C11.8646596,19.6939025 11.6274886,19.8317811 11.6361408,20.008767 C11.6458108,20.2012955 11.9257337,20.3441879 12.0875801,20.3622374 C12.3501987,20.3913172 12.6448811,20.1250863 12.9568679,20.2409043 C13.0835967,20.2880337 13.1650288,20.4915926 13.3263662,20.6861266 C13.3782791,19.8673788 12.7476892,19.3735229 12.0173449,19.6382497 Z" id="Shape" fill="#393737"></path>
                        <path d="M17.6234373,19.6593075 C16.8997093,19.3093467 16.1744545,19.8257645 16.2385823,20.6856253 C16.4350373,20.3221273 16.6584667,20.1205739 17.0956553,20.3547168 C17.2259467,20.4244081 17.4620999,20.3687553 17.6188567,20.3015709 C17.7384601,20.2504304 17.8799484,20.0919955 17.8830021,19.9776816 C17.8860558,19.8713898 17.7410049,19.7159631 17.6234373,19.6593075 Z" id="Shape" fill="#393737"></path>
                    </g>
                </g>
                <path d="M64.968,30.28 L61.44,30.28 L60.048,26.848 L52.944,26.848 L51.528,30.28 L48,30.28 L54.96,14.2 L58.008,14.2 L64.968,30.28 Z M58.824,23.896 L56.496,18.16 L54.144,23.896 L58.824,23.896 Z M81.696,17.944 C84.192,17.944 86.352,19.864 86.352,22.792 L86.352,30.28 L83.208,30.28 L83.208,23.44 C83.208,21.832 82.176,20.848 80.856,20.848 C79.176,20.848 78.072,22 78.072,24.52 L78.072,30.28 L74.904,30.28 L74.904,23.44 C74.904,21.832 73.872,20.848 72.552,20.848 C70.872,20.848 69.816,22 69.816,24.52 L69.816,30.28 L66.648,30.28 L66.648,18.304 L69.816,18.304 L69.816,19.288 C70.656,18.448 71.832,17.944 73.392,17.944 C75,17.944 76.464,18.64 77.328,19.912 C78.312,18.688 79.776,17.944 81.696,17.944 Z M96.552,17.944 C99.6,17.944 102.432,20.536 102.432,24.304 C102.432,28.072 99.6,30.64 96.552,30.64 C94.92,30.64 93.6,30.16 92.592,29.344 L92.592,30.28 L89.424,30.28 L89.424,13 L92.592,13 L92.592,19.264 C93.6,18.424 94.92,17.944 96.552,17.944 Z M96,27.88 C97.92,27.88 99.36,26.512 99.36,24.304 C99.36,22.096 97.92,20.704 96,20.704 C94.296,20.704 92.592,22.096 92.592,24.304 C92.592,26.512 94.296,27.88 96,27.88 Z M116.88,18.304 L116.88,30.28 L113.712,30.28 L113.712,29.344 C112.704,30.16 111.384,30.64 109.752,30.64 C106.704,30.64 103.872,28.072 103.872,24.304 C103.872,20.536 106.704,17.944 109.752,17.944 C111.384,17.944 112.704,18.424 113.712,19.264 L113.712,18.304 L116.88,18.304 Z M110.304,27.88 C112.008,27.88 113.712,26.512 113.712,24.304 C113.712,22.096 112.008,20.704 110.304,20.704 C108.384,20.704 106.944,22.096 106.944,24.304 C106.944,26.512 108.384,27.88 110.304,27.88 Z M119.232,27.112 L122.424,26.464 C122.592,27.688 123.648,28.096 124.896,28.096 C126.072,28.096 126.768,27.568 126.768,26.896 C126.768,26.464 126.48,26.032 125.448,25.816 L123,25.312 C120.84,24.856 119.616,23.632 119.616,21.904 C119.616,19.6 121.488,17.944 124.512,17.944 C127.344,17.944 129.312,19.408 129.72,21.496 L126.696,22.096 C126.576,21.136 125.736,20.44 124.416,20.44 C123.144,20.44 122.784,21.064 122.784,21.616 C122.784,22 122.928,22.408 123.864,22.624 L126.72,23.248 C128.832,23.704 129.864,25.024 129.864,26.632 C129.864,29.272 127.728,30.64 124.608,30.64 C121.968,30.64 119.544,29.608 119.232,27.112 Z M131.304,27.112 L134.496,26.464 C134.664,27.688 135.72,28.096 136.968,28.096 C138.144,28.096 138.84,27.568 138.84,26.896 C138.84,26.464 138.552,26.032 137.52,25.816 L135.072,25.312 C132.912,24.856 131.688,23.632 131.688,21.904 C131.688,19.6 133.56,17.944 136.584,17.944 C139.416,17.944 141.384,19.408 141.792,21.496 L138.768,22.096 C138.648,21.136 137.808,20.44 136.488,20.44 C135.216,20.44 134.856,21.064 134.856,21.616 C134.856,22 135,22.408 135.936,22.624 L138.792,23.248 C140.904,23.704 141.936,25.024 141.936,26.632 C141.936,29.272 139.8,30.64 136.68,30.64 C134.04,30.64 131.616,29.608 131.304,27.112 Z M156.432,18.304 L156.432,30.28 L153.264,30.28 L153.264,29.344 C152.256,30.16 150.936,30.64 149.304,30.64 C146.256,30.64 143.424,28.072 143.424,24.304 C143.424,20.536 146.256,17.944 149.304,17.944 C150.936,17.944 152.256,18.424 153.264,19.264 L153.264,18.304 L156.432,18.304 Z M149.856,27.88 C151.56,27.88 153.264,26.512 153.264,24.304 C153.264,22.096 151.56,20.704 149.856,20.704 C147.936,20.704 146.496,22.096 146.496,24.304 C146.496,26.512 147.936,27.88 149.856,27.88 Z M171.84,13 L171.84,30.28 L168.672,30.28 L168.672,29.344 C167.664,30.16 166.344,30.64 164.712,30.64 C161.664,30.64 158.832,28.072 158.832,24.304 C158.832,20.536 161.664,17.944 164.712,17.944 C166.344,17.944 167.664,18.424 168.672,19.264 L168.672,13 L171.84,13 Z M165.264,27.88 C166.968,27.88 168.672,26.512 168.672,24.304 C168.672,22.096 166.968,20.704 165.264,20.704 C163.344,20.704 161.904,22.096 161.904,24.304 C161.904,26.512 163.344,27.88 165.264,27.88 Z M180.768,18.016 C184.272,18.016 187.224,20.536 187.224,24.304 C187.224,28.072 184.272,30.592 180.768,30.592 C177.192,30.592 174.24,28.072 174.24,24.304 C174.24,20.536 177.192,18.016 180.768,18.016 Z M180.768,27.88 C182.424,27.88 184.152,26.536 184.152,24.304 C184.152,22.072 182.424,20.728 180.768,20.728 C179.04,20.728 177.312,22.072 177.312,24.304 C177.312,26.536 179.04,27.88 180.768,27.88 Z M197.088,18.136 C197.4,18.136 197.64,18.136 197.928,18.232 L197.76,21.28 L197.064,21.28 C194.136,21.28 192.792,23.08 192.792,26.416 L192.792,30.28 L189.624,30.28 L189.624,18.304 L192.792,18.304 L192.792,20.488 C193.752,19.096 195.144,18.136 197.088,18.136 Z" id="Ambassador" fill="#000000"></path>
            </g>
        </g>
    </g>
</svg>